<svg width="139" height="97" xmlns="http://www.w3.org/2000/svg"><g id="Page-1" stroke="none" stroke-width="1" fill="none" fill-rule="evenodd"><g id="iOlogowhite" transform="translate(.26 .88)" fill="#000" fill-rule="nonzero"><path d="M92.16 26.72c12.61 0 22.86 10.26 22.86 22.86s-10.26 22.86-22.86 22.86S69.3 62.18 69.3 49.58s10.26-22.86 22.86-22.86m0-22.86c-25.25 0-45.72 20.47-45.72 45.72S66.91 95.3 92.16 95.3s45.72-20.47 45.72-45.72c.01-25.25-20.46-45.72-45.72-45.72Z" id="Shape"/><g id="Group"><path d="M21.54 35.06 0 83.44l24.26 10.8L35 70.11c5.96-13.39-.07-29.09-13.46-35.05ZM8.08 0c-5.96 13.4.06 29.09 13.46 35.06l10.8-24.26L8.08 0Z" id="Path"/></g></g></g></svg>