<svg version="1.1" id="Layer_1" xmlns="http://www.w3.org/2000/svg" x="0" y="0" viewBox="0 0 828.5 331.7" style="enable-background:new 0 0 828.5 331.7" xml:space="preserve"><style>.st2{fill:#fff}.st4{enable-background:new}</style><path d="M394.3 233.1c-12.8 9.5-30.8 6.8-40.2-6-9.5-12.8-6.8-30.8 6-40.2 12.8-9.5 30.8-6.8 40.2 6 9.5 12.7 6.8 30.7-6 40.2z" style="fill:#f14a3b"/><path d="M380.6 151.9c-8.6 3.1-17.7 4.7-26.9 4.6-10.1 0-20-2-29.4-5.9-9.7-4-18.4-9.8-25.8-17.3s-13.2-16.2-17.1-26c-3.8-9.4-5.6-19.3-5.6-29.4s2-20 5.9-29.4c4-9.7 9.8-18.4 17.3-25.8s16.2-13.2 26-17.1c9.4-3.8 19.3-5.6 29.4-5.6s20 2 29.4 5.9c9.7 4 18.4 9.8 25.8 17.3l-31.4 31.2c-6.4-6.5-14.9-10.1-24-10.1s-17.6 3.5-24.1 9.9-10.1 14.9-10.1 24 3.5 17.6 9.9 24.1 14.9 10.1 24 10.1 17.6-3.5 24.1-9.9 10.1-14.9 10.1-24l44.2.2c0 10.1-2 20-5.9 29.4-4 9.7-9.8 18.4-17.3 25.8-7.5 7.4-16.2 13.2-26 17.1-.8.3-1.7.6-2.5.9z" style="fill:#44dba4"/><path class="st2" d="M272.8 327c-2.7 1-5.5 1.8-8.3 2.5-9.9 2.4-20.1 2.9-30.3 1.3-10.1-1.5-19.7-4.9-28.5-10.1-9.1-5.4-17-12.5-23.3-21-13.7-18.6-18.7-42.1-13.6-64.6l44.7 10.2c-2.1 9.4-.1 19.3 5.7 27.1 5.3 7.1 13 11.8 21.8 13.1s17.5-.9 24.7-6.2c7.1-5.3 11.8-13 13.1-21.8s-.9-17.5-6.2-24.7c-.1-.2-.3-.3-.4-.5-4.3-5.5-10.3-10-30.1-14.8-32.2-7.9-56-36.7-58.5-69.9 0-.5-.1-1-.1-1.5-.9-15.1 2.6-30.1 9.9-43.2 7.2-12.8 17.7-23.3 30.5-30.4l22.3 40c-5.4 3-9.8 7.4-12.8 12.8-3.1 5.5-4.5 11.8-4.2 18.1v.6c1 13.8 10.5 27 25.6 31.1 14.6 4 22.9 5.1 33.4 10.9 9.6 5.2 15.6 11.7 20.2 18.3l.9 1.2c6.3 8.6 10.8 18.1 13.3 28.4 2.4 9.9 2.9 20.1 1.3 30.3-1.5 10.1-4.9 19.7-10.1 28.5-5.4 9.1-12.5 17-21 23.3-6.1 4.8-12.8 8.4-20 11z"/><path d="M137.9 115.1c-12.2-16.4-30-27.1-50.1-30.2-12.7-1.9-25.4-.6-37.2 3.7-6.9 2.5-13.5 6-19.6 10.5-16.4 12.2-27.1 30-30.2 50.1-3 20.2 2 40.3 14.2 56.8 12.2 16.4 30 27.1 50.1 30.2 20.2 3 40.3-2 56.8-14.2 16.4-12.2 27.1-30 30.2-50.1 3-20.2-2.1-40.4-14.2-56.8z" style="fill:#fcb70f"/><g class="st4"><path class="st2" d="M554.3 102.5c0 12.4-8.7 20.7-21.5 20.7-12.7 0-21.4-8.4-21.4-20.7s8.7-20.6 21.4-20.6c12.8 0 21.5 8.3 21.5 20.6zm-32.9.2c0 7.3 4.7 12.3 11.4 12.3 6.8 0 11.5-5 11.5-12.3s-4.7-12.2-11.5-12.2c-6.7 0-11.4 4.9-11.4 12.2zM606.1 102.8c0 12.2-7.5 20.5-19.1 20.5-6.2 0-10.9-2.5-13.8-7v21.4h-9.9V82.2h9.9v6.7c2.9-4.5 7.6-7 13.7-7 11.4 0 19.2 8.4 19.2 20.9zm-10.1-.3c0-7.1-4.7-12.2-11.4-12.2-6.8 0-11.5 5.1-11.5 12.2 0 7.3 4.7 12.3 11.5 12.3 6.7 0 11.4-5.1 11.4-12.3zM651.1 106h-30c1.3 5.8 5.7 9.3 11.6 9.3 4.2 0 8.1-1.6 10.9-4.6l5.3 5.5c-4 4.4-10 7-17.1 7-12.6 0-20.9-8.4-20.9-20.6 0-12.4 8.5-20.7 20.7-20.7 14.3 0 20.4 9.4 19.5 24.1zm-9-6.6c-.2-6-4.3-9.8-10.4-9.8-5.9 0-10 3.8-10.9 9.8h21.3zM699.2 97.5v25.4h-10v-22.5c0-5.7-3.4-9.2-9-9.2-6.7.1-10.6 5-10.6 11.7v20h-9.9V82.2h9.9v7.6c2.9-5.4 8-7.9 14.6-8 9.3.1 15 6.1 15 15.7z"/></g><g class="st4"><path class="st2" d="M527.3 171.5c-3.2 0-5.5 1.1-5.5 3.6 0 6.8 21.5 3.3 21.5 17.9 0 8.3-7.4 12.3-16 12.3-6.2 0-12.5-2-16.8-5.7l3.4-6.9c3.7 3.2 9.3 5 13.8 5 3.4 0 6-1.1 6-3.8 0-7.5-21.2-3.4-21.1-17.9 0-8.4 7.1-12.2 15.4-12.2 5.3 0 10.9 1.6 14.9 4.3l-3.6 7.1c-4.1-2.3-8.5-3.7-12-3.7zM589.3 164.2v40.7h-10v-7.5c-2.8 5.4-7.7 7.9-14.1 7.9-9.1 0-14.7-6-14.7-15.6v-25.5h10v22.6c0 5.7 3.3 9.1 8.7 9.1 6.4-.1 10.2-5.1 10.2-11.6v-20.1h9.9zM669.7 179.5v25.4h-10v-22.5c0-5.8-3.4-9.3-8.9-9.3-6.4.2-10.3 5.1-10.3 11.7v20.1h-10v-22.5c0-5.8-3.3-9.3-8.8-9.3-6.5.2-10.3 5.1-10.3 11.7v20.1h-9.9v-40.7h9.9v7.5c2.8-5.4 7.8-7.8 14.3-7.9 7.1 0 12.1 3.6 14 9.7 2.7-6.6 8-9.7 15.1-9.7 9.3.1 14.9 6.1 14.9 15.7zM748.8 179.5v25.4h-10v-22.5c0-5.8-3.4-9.3-8.9-9.3-6.4.2-10.3 5.1-10.3 11.7v20.1h-10v-22.5c0-5.8-3.3-9.3-8.8-9.3-6.5.2-10.3 5.1-10.3 11.7v20.1h-9.9v-40.7h9.9v7.5c2.8-5.4 7.8-7.8 14.3-7.9 7.1 0 12.1 3.6 14 9.7 2.7-6.6 8-9.7 15.1-9.7 9.3.1 14.9 6.1 14.9 15.7zM796.2 188h-30c1.3 5.8 5.7 9.3 11.6 9.3 4.2 0 8.1-1.6 10.9-4.6l5.3 5.5c-4 4.4-10 7-17.1 7-12.6 0-20.9-8.4-20.9-20.6 0-12.4 8.5-20.7 20.7-20.7 14.3 0 20.5 9.4 19.5 24.1zm-9-6.6c-.2-6-4.3-9.8-10.4-9.8-5.9 0-10 3.8-10.9 9.8h21.3zM828.5 163.9v9.6c-8.6-.5-13.8 4.5-13.8 11.9V205h-9.9v-40.7h9.9v7.8c2.7-5.3 7.5-8.2 13.8-8.2z"/></g><g class="st4"><path class="st2" d="M554.3 266.5c0 12.4-8.7 20.7-21.5 20.7-12.7 0-21.4-8.4-21.4-20.7 0-12.3 8.7-20.6 21.4-20.6 12.8 0 21.5 8.3 21.5 20.6zm-32.9.2c0 7.3 4.7 12.3 11.4 12.3 6.8 0 11.5-5 11.5-12.3s-4.7-12.2-11.5-12.2c-6.7 0-11.4 4.9-11.4 12.2zM574.2 243.7v4.2h10.2v7.2h-10.2v31.8h-9.9v-31.8H559v-7.2h5.3V244c0-9.3 6.9-14 14.4-14 3.4 0 7 1 9.7 2.8l-3.6 7.5c-1.7-1.1-3.6-1.8-5.4-1.8-2.8.1-5.2 1.7-5.2 5.2zM625.9 254.6c-6.5 0-11.1 4.9-11.1 12 0 7.3 4.6 12.2 11.1 12.2 4.7 0 8.5-1.6 10.9-4.8l6.2 5.1c-3.6 5.2-9.7 8.2-17.6 8.2-12.2 0-20.5-8.4-20.5-20.6 0-12.4 8.4-20.7 20.7-20.7 7.4 0 13.4 2.7 17 7.4l-6 5.7c-2.6-2.8-6.2-4.5-10.7-4.5zM689.2 266.5c0 12.4-8.7 20.7-21.5 20.7-12.7 0-21.4-8.4-21.4-20.7 0-12.3 8.7-20.6 21.4-20.6 12.8 0 21.5 8.3 21.5 20.6zm-32.9.2c0 7.3 4.7 12.3 11.4 12.3 6.8 0 11.5-5 11.5-12.3s-4.7-12.2-11.5-12.2c-6.7 0-11.4 4.9-11.4 12.2zM737 230.5v56.4h-9.9v-6.5c-2.9 4.5-7.6 7-13.7 7-11.6 0-19.4-8.5-19.4-20.9 0-12.3 7.8-20.6 19.2-20.6 6.2 0 10.9 2.5 13.9 7.1v-22.4h9.9v-.1zm-9.9 36.2c0-7.3-4.7-12.4-11.6-12.4-6.8 0-11.5 5.2-11.6 12.4.1 7.3 4.7 12.4 11.6 12.4 6.9 0 11.6-5.1 11.6-12.4zM786.1 270h-30c1.3 5.8 5.7 9.3 11.6 9.3 4.2 0 8.1-1.6 10.9-4.6l5.3 5.5c-4 4.4-10 7-17.1 7-12.6 0-20.9-8.4-20.9-20.6 0-12.4 8.5-20.7 20.7-20.7 14.3 0 20.5 9.4 19.5 24.1zm-9-6.6c-.2-6-4.3-9.8-10.4-9.8-5.9 0-10 3.8-10.9 9.8h21.3z"/></g></svg>