<svg version="1.0" xmlns="http://www.w3.org/2000/svg" width="933.333" height="933.333" viewBox="0 0 700 700"><path d="M328 .6c-1.9.2-8.4.9-14.5 1.4-67.7 6.6-134.3 34.8-187.8 79.5-15.1 12.7-37.4 35.4-49.1 50-36.9 46.2-61.9 101.9-71.5 159.7C1.3 313.8.6 323.2.6 350c0 26.8.7 36.2 4.5 58.8 18 107.8 87.4 202.4 185.4 252.7 37.9 19.4 77 31.1 123 36.7 13.4 1.6 58.9 1.6 73.5-.1 60.7-6.9 117.7-28.6 166.5-63.4 29.4-21 60.2-51.8 81.3-81.3 34.9-49 56-104.5 63.4-166.9 1.6-13.9 1.6-59.5 0-73-10.3-85.2-44.7-155.7-104.3-214.1C538.5 45.3 468.8 12 391 2.4 379.3.9 335.7-.3 328 .6zm52.4 66.5c6.7 2.5 13.9 9.2 16.9 15.7 3 6.6 3 17.8-.1 24.8-2.9 6.3-9.2 12.6-15.7 15.6-7 3.2-18 3.1-25-.2-6.3-3.1-12.1-8.9-14.7-14.8-2.5-5.6-3.4-15.3-1.9-20.9 2.4-9 11.8-18.7 20.5-21.2 5.6-1.6 14.2-1.2 20 1zm5.2 64.8c5.1 2.3 8.9 7.1 10.3 13.1 1.1 4.1.6 6.8-5.7 32.5-3.8 15.4-6.8 28.2-6.6 28.4.2.1 12.9-7.4 28.3-16.8s29.2-17.6 30.6-18.1c6.2-2.3 15.5 0 20.2 5.1 2.2 2.5 49.5 79.5 53.2 86.8 7.4 14.4-6.4 31.3-22.1 27.1-2.2-.6-5.7-2.8-7.8-4.8-2.2-2.1-12.4-17.9-23.5-36.2-10.9-17.9-19.9-32.6-20-32.8-.2-.2-4.6 2.3-9.8 5.6l-9.6 5.8 6 4.4c16.7 12.2 30.1 33.3 34.3 54.2 2 9.6 2.2 28.8.4 28.8-.7 0-8.4-1.7-17-3.7l-15.8-3.7v-6.1c0-24.3-18.8-47.7-43.5-54-7.6-1.9-21.4-1.9-28.9 0-14 3.7-28.8 14.8-35.6 26.7-1.7 3.2-3.7 5.8-4.3 5.8-1.1 0-18.1-4-25.9-6.1-2.1-.5-3.8-1.6-3.8-2.4 0-2.3 7.3-15.6 12-21.8 4.3-5.8 4.4-6.1 13.1-42 4.9-19.9 8.9-36.5 8.9-37 0-.9-23.1-.9-24.7.1-.6.4-3.2 9.1-5.7 19.4-2.5 10.4-5.2 20.1-6 21.6-8.9 17.3-35.9 11.1-35.9-8.1 0-5.8 12.1-56.5 14.7-61.4 2.1-4.2 6.9-8 11.4-9.2 3.3-.9 55.5-2.5 91.2-2.9 11.3-.1 14.2.2 17.6 1.7zM183.3 266.1c2.4 3.4.9 5.5-6.4 9.4-3.8 2-7.3 4.4-7.9 5.5-2.7 5 .5 11.3 5.7 11.3 2 0 11.1-4.4 27-13.1 13.2-7.3 24.6-13.2 25.4-13.2 3.5 0 5.3 5.6 2.7 7.8-.7.5-12.2 7-25.6 14.3-20.5 11.2-25 13.2-28.6 13.2-9.3 0-16.6-7.1-16.6-16.3 0-7.1 3.2-11.5 12-16.6 8.5-4.9 10.3-5.2 12.3-2.3zm71.8 13.9c2.4 1.3 2.5 5.2.2 7.2-1.5 1.2-89.2 49.7-100.1 55.2-18.3 9.4-41.2-4.3-41.2-24.6 0-12.6 5.1-20.8 16.7-27 6-3.2 7.6-3.7 9.3-2.8 1.1.6 2 2.1 2 3.5 0 2.5-.6 3-9.5 8.8-6.4 4.1-9.5 9.5-9.5 16.5 0 12.4 11.2 22 22.8 19.4 2.2-.5 25.3-12.6 51.3-26.9 50.9-27.9 55.2-30.3 55.7-30.3.2 0 1.2.5 2.3 1zm41.6 15.5c20.1 4.8 18.3 3.8 18.3 9.8.1 14.4 6 27.8 17.5 39.2 12.7 12.7 26.5 18.2 43.5 17.2 20.1-1.1 39.8-13.4 48.2-30.1 1.1-2.3 2.1-4.2 2.3-4.3.4-.6 33.5 8 33.5 8.7 0 1.9-5.5 13-9.7 19.4-18.2 28.1-52.9 44.5-86.1 40.6-43.4-5.2-76.3-38.1-81.2-81.3-1.3-10.6-.5-21.7 1.5-21.7.7 0 6.2 1.1 12.2 2.5zm-57.2 22.9c.8 1.3 1.3 3 1 3.8-.3.7-13.3 8.4-28.8 16.9-30.5 16.7-32.2 18.1-29.5 23.6.7 1.5 2.5 3.4 4 4.3 2.7 1.4 3.1 1.3 11-2.7 7.3-3.7 8.5-4.1 10.3-2.9 5.1 3.4 2.7 6.8-8.5 12-6.7 3.2-8.6 3.7-12 3.1-8.6-1.4-14.2-8-14.2-16.6 0-9.2 1.4-10.4 33.3-28 15.6-8.7 29.2-15.8 30.1-15.8 1-.1 2.4 1 3.3 2.3zm170.9 137.5 14.5 17.4-2.2 3.1c-1.9 2.8-23.6 32.7-24.2 33.4-.4.4-45.5-53.7-45.5-54.6 0-.5 8.9-5.2 19.8-10.4 18.3-8.9 19.8-9.5 21.4-8 .9 1 8.2 9.5 16.2 19.1zm-68.9 55c16.3 19.5 29.4 35.9 29.1 36.6-.6 1.6-24.5 34.3-25.4 34.9-.7.4-73.2-85.3-74-87.3-.3-.8 38.8-20.1 40-19.8.4.1 14 16.1 30.3 35.6z"/></svg>