<?xml version="1.0" standalone="no"?>
<!DOCTYPE svg PUBLIC "-//W3C//DTD SVG 20010904//EN"
 "http://www.w3.org/TR/2001/REC-SVG-20010904/DTD/svg10.dtd">
<svg version="1.0" xmlns="http://www.w3.org/2000/svg"
 width="700.000000pt" height="700.000000pt" viewBox="0 0 700.000000 700.000000"
 preserveAspectRatio="xMidYMid meet">
<metadata>
Created by potrace 1.14, written by Peter Selinger 2001-2017
</metadata>
<g transform="translate(0.000000,700.000000) scale(0.100000,-0.100000)"
fill="#000000" stroke="none">
<path d="M3280 6994 c-19 -2 -84 -9 -145 -14 -677 -66 -1343 -348 -1878 -795
-151 -127 -374 -354 -491 -500 -369 -462 -619 -1019 -715 -1597 -38 -226 -45
-320 -45 -588 0 -268 7 -362 45 -588 180 -1078 874 -2024 1854 -2527 379 -194
770 -311 1230 -367 134 -16 589 -16 735 1 607 69 1177 286 1665 634 294 210
602 518 813 813 349 490 560 1045 634 1669 16 139 16 595 0 730 -103 852 -447
1557 -1043 2141 -554 541 -1251 874 -2029 970 -117 15 -553 27 -630 18z m524
-665 c67 -25 139 -92 169 -157 30 -66 30 -178 -1 -248 -29 -63 -92 -126 -157
-156 -70 -32 -180 -31 -250 2 -63 31 -121 89 -147 148 -25 56 -34 153 -19 209
24 90 118 187 205 212 56 16 142 12 200 -10z m52 -648 c51 -23 89 -71 103
-131 11 -41 6 -68 -57 -325 -38 -154 -68 -282 -66 -284 2 -1 129 74 283 168
154 94 292 176 306 181 62 23 155 0 202 -51 22 -25 495 -795 532 -868 74 -144
-64 -313 -221 -271 -22 6 -57 28 -78 48 -22 21 -124 179 -235 362 -109 179
-199 326 -200 328 -2 2 -46 -23 -98 -56 l-96 -58 60 -44 c167 -122 301 -333
343 -542 20 -96 22 -288 4 -288 -7 0 -84 17 -170 37 l-158 37 0 61 c0 243
-188 477 -435 540 -76 19 -214 19 -289 0 -140 -37 -288 -148 -356 -267 -17
-32 -37 -58 -43 -58 -11 0 -181 40 -259 61 -21 5 -38 16 -38 24 0 23 73 156
120 218 43 58 44 61 131 420 49 199 89 365 89 370 0 9 -231 9 -247 -1 -6 -4
-32 -91 -57 -194 -25 -104 -52 -201 -60 -216 -89 -173 -359 -111 -359 81 0 58
121 565 147 614 21 42 69 80 114 92 33 9 555 25 912 29 113 1 142 -2 176 -17z
m-2023 -1342 c24 -34 9 -55 -64 -94 -38 -20 -73 -44 -79 -55 -27 -50 5 -113
57 -113 20 0 111 44 270 131 132 73 246 132 254 132 35 0 53 -56 27 -78 -7 -5
-122 -70 -256 -143 -205 -112 -250 -132 -286 -132 -93 0 -166 71 -166 163 0
71 32 115 120 166 85 49 103 52 123 23z m718 -139 c24 -13 25 -52 2 -72 -15
-12 -892 -497 -1001 -552 -183 -94 -412 43 -412 246 0 126 51 208 167 270 60
32 76 37 93 28 11 -6 20 -21 20 -35 0 -25 -6 -30 -95 -88 -64 -41 -95 -95 -95
-165 0 -124 112 -220 228 -194 22 5 253 126 513 269 509 279 552 303 557 303
2 0 12 -5 23 -10z m416 -155 c201 -48 183 -38 183 -98 1 -144 60 -278 175
-392 127 -127 265 -182 435 -172 201 11 398 134 482 301 11 23 21 42 23 43 4
6 335 -80 335 -87 0 -19 -55 -130 -97 -194 -182 -281 -529 -445 -861 -406
-434 52 -763 381 -812 813 -13 106 -5 217 15 217 7 0 62 -11 122 -25z m-572
-229 c8 -13 13 -30 10 -38 -3 -7 -133 -84 -288 -169 -305 -167 -322 -181 -295
-236 7 -15 25 -34 40 -43 27 -14 31 -13 110 27 73 37 85 41 103 29 51 -34 27
-68 -85 -120 -67 -32 -86 -37 -120 -31 -86 14 -142 80 -142 166 0 92 14 104
333 280 156 87 292 158 301 158 10 1 24 -10 33 -23z m1709 -1375 l145 -174
-22 -31 c-19 -28 -236 -327 -242 -334 -4 -4 -455 537 -455 546 0 5 89 52 198
104 183 89 198 95 214 80 9 -10 82 -95 162 -191z m-689 -550 c163 -195 294
-359 291 -366 -6 -16 -245 -343 -254 -349 -7 -4 -732 853 -740 873 -3 8 388
201 400 198 4 -1 140 -161 303 -356z"/>
</g>
</svg>
